# Blender 4.0.2
# www.blender.org
mtllib head_nose.mtl
o head_nose
v -1.898355 -0.359397 35.630112
v -2.664107 -0.763709 35.215767
v -2.551400 -1.095542 36.301041
v -2.793986 -1.340735 35.847481
v -2.310900 -1.670050 36.391586
v -2.141885 -1.502310 36.835114
v -1.809051 -0.789298 36.871857
v -1.037490 -0.161551 35.780464
v 0.000000 -0.081076 35.815552
v 0.000000 -3.315085 37.190292
v -1.084794 -0.576499 37.202087
v 0.000000 -3.783057 36.903343
v -0.596283 -3.318564 36.944267
v -0.533057 -3.050604 37.248886
v -1.060886 -2.751120 36.954773
v -1.052096 -2.274039 37.344376
v -1.711212 -1.211402 37.355415
v -0.976428 -1.028601 37.701843
v 0.000000 -0.432944 37.388412
v 0.000000 -0.885779 37.855156
v 0.000000 -2.106284 37.588272
v -0.649333 -2.120566 37.519318
v 0.000000 -3.861639 36.566956
v -0.421873 -3.564856 36.663414
v -1.054755 -2.839514 36.617950
v 1.898355 -0.359397 35.630112
v 2.664107 -0.763709 35.215767
v 2.551400 -1.095542 36.301041
v 2.793986 -1.340735 35.847481
v 2.310900 -1.670050 36.391586
v 2.141885 -1.502310 36.835114
v 1.809051 -0.789298 36.871857
v 1.037490 -0.161551 35.780464
v 1.084794 -0.576499 37.202087
v 0.596283 -3.318564 36.944267
v 0.533057 -3.050604 37.248886
v 1.060886 -2.751120 36.954773
v 1.052096 -2.274039 37.344376
v 1.711212 -1.211402 37.355415
v 0.976428 -1.028601 37.701843
v 0.649333 -2.120566 37.519318
v 0.421873 -3.564856 36.663414
v 1.054755 -2.839514 36.617950
vn -0.1945 -0.2571 0.9466
vn -0.0000 0.3173 0.9483
vn -0.3164 0.2532 0.9142
vn -0.3127 0.8197 0.4798
vn -0.6218 0.1321 0.7719
vn -0.6705 0.6872 0.2797
vn -0.8090 0.3238 0.4906
vn -0.4409 0.8394 0.3179
vn -0.4766 -0.3779 0.7937
vn -0.5388 -0.7187 0.4396
vn -0.0000 -0.5644 0.8255
vn -0.5507 -0.7119 0.4358
vn -0.6910 -0.5906 0.4168
vn -0.7279 -0.6679 0.1551
vn -0.9044 0.2291 0.3599
vn -0.7912 -0.3957 0.4663
vn -0.7656 -0.1863 0.6157
vn -0.5606 0.6754 0.4790
vn -0.3385 -0.4878 0.8047
vn -0.0000 -0.7957 0.6056
vn -0.0000 -0.9738 0.2275
vn -0.0000 0.9673 0.2538
vn -0.1969 0.9358 0.2925
vn -0.0000 0.8731 0.4876
vn -0.0000 -0.2545 0.9671
vn 0.1945 -0.2571 0.9466
vn 0.3164 0.2532 0.9142
vn 0.3127 0.8197 0.4798
vn 0.6218 0.1321 0.7719
vn 0.6705 0.6872 0.2797
vn 0.4409 0.8394 0.3179
vn 0.8090 0.3238 0.4906
vn 0.4766 -0.3779 0.7937
vn 0.5388 -0.7187 0.4396
vn 0.5507 -0.7119 0.4358
vn 0.7279 -0.6679 0.1551
vn 0.6910 -0.5906 0.4168
vn 0.9044 0.2291 0.3599
vn 0.7912 -0.3957 0.4663
vn 0.7656 -0.1863 0.6157
vn 0.5606 0.6754 0.4790
vn 0.3385 -0.4878 0.8047
vn 0.1969 0.9358 0.2925
vt 0.213257 0.898376
vt 0.216187 0.902954
vt 0.212646 0.903015
vt 0.212158 0.905640
vt 0.209595 0.903137
vt 0.203491 0.910522
vt 0.205078 0.905823
vt 0.207642 0.910767
vt 0.211304 0.897949
vt 0.213135 0.891052
vt 0.215698 0.893250
vt 0.212769 0.892944
vt 0.210327 0.895569
vt 0.209106 0.894592
vt 0.202881 0.906616
vt 0.204712 0.902588
vt 0.206787 0.902893
vt 0.208984 0.905640
vt 0.213379 0.894470
vt 0.215576 0.890991
vt 0.215576 0.889648
vt 0.216675 0.911987
vt 0.211792 0.911560
vt 0.216309 0.905396
vt 0.215942 0.898254
s 1
usemtl MI_NappyCat_Main
f 22/1/1 20/2/2 18/3/3
f 11/4/4 17/5/5 18/3/3
f 2/6/6 3/7/7 1/8/8
f 16/9/9 18/3/3 17/5/5
f 24/10/10 10/11/11 13/12/12
f 13/12/12 15/13/13 25/14/14
f 4/15/15 5/16/16 3/7/7
f 3/7/7 5/16/16 6/17/17
f 3/7/7 7/18/18 1/8/8
f 10/11/11 14/19/19 13/12/12
f 16/9/9 6/17/17 15/13/13
f 6/17/17 16/9/9 17/5/5
f 12/20/20 24/10/10 23/21/21
f 13/12/12 25/14/14 24/10/10
f 15/13/13 5/16/16 25/14/14
f 11/4/4 9/22/22 8/23/23
f 18/3/3 19/24/24 11/4/4
f 7/18/18 8/23/23 1/8/8
f 6/17/17 7/18/18 3/7/7
f 14/19/19 16/9/9 15/13/13
f 21/25/25 14/19/19 10/11/11
f 22/1/1 21/25/25 20/2/2
f 11/4/4 7/18/18 17/5/5
f 2/6/6 4/15/15 3/7/7
f 16/9/9 22/1/1 18/3/3
f 24/10/10 12/20/20 10/11/11
f 13/12/12 14/19/19 15/13/13
f 15/13/13 6/17/17 5/16/16
f 11/4/4 19/24/24 9/22/22
f 18/3/3 20/2/2 19/24/24
f 7/18/18 11/4/4 8/23/23
f 6/17/17 17/5/5 7/18/18
f 14/19/19 22/1/1 16/9/9
f 21/25/25 22/1/1 14/19/19
f 41/1/26 40/3/27 20/2/2
f 34/4/28 40/3/27 39/5/29
f 27/6/30 26/8/31 28/7/32
f 38/9/33 39/5/29 40/3/27
f 42/10/34 35/12/35 10/11/11
f 35/12/35 43/14/36 37/13/37
f 29/15/38 28/7/32 30/16/39
f 28/7/32 31/17/40 30/16/39
f 28/7/32 26/8/31 32/18/41
f 10/11/11 35/12/35 36/19/42
f 38/9/33 37/13/37 31/17/40
f 31/17/40 39/5/29 38/9/33
f 12/20/20 23/21/21 42/10/34
f 35/12/35 42/10/34 43/14/36
f 37/13/37 43/14/36 30/16/39
f 34/4/28 33/23/43 9/22/22
f 40/3/27 34/4/28 19/24/24
f 32/18/41 26/8/31 33/23/43
f 31/17/40 28/7/32 32/18/41
f 36/19/42 37/13/37 38/9/33
f 21/25/25 10/11/11 36/19/42
f 41/1/26 20/2/2 21/25/25
f 34/4/28 39/5/29 32/18/41
f 27/6/30 28/7/32 29/15/38
f 38/9/33 40/3/27 41/1/26
f 42/10/34 10/11/11 12/20/20
f 35/12/35 37/13/37 36/19/42
f 37/13/37 30/16/39 31/17/40
f 34/4/28 9/22/22 19/24/24
f 40/3/27 19/24/24 20/2/2
f 32/18/41 33/23/43 34/4/28
f 31/17/40 32/18/41 39/5/29
f 36/19/42 38/9/33 41/1/26
f 21/25/25 36/19/42 41/1/26
