# Blender 4.0.2
# www.blender.org
mtllib hip_metal.mtl
o hip_metal
v -1.418511 0.129550 24.141161
v -1.226267 -1.456967 21.017481
v -1.209079 -3.771146 19.153198
v -1.191859 -5.363782 17.994072
v -1.170848 -7.166226 16.574389
v -1.162618 -10.754361 13.510920
v 0.000000 -12.549039 11.784529
v -0.897770 -4.091260 19.593195
v -0.898655 -1.848737 21.389751
v -0.869357 -0.380277 24.288176
v 0.000000 -1.905561 21.378595
v 0.000000 -12.752942 13.097807
v -1.339447 -13.153401 12.571234
v 0.000000 -13.281667 12.667557
v 0.000000 -11.369596 14.248041
v -1.340172 -11.299451 14.105431
v 0.000000 -11.194806 13.840242
v 0.000000 -9.538701 15.423246
v 0.000000 -4.143704 19.575548
v 0.000000 -5.743237 18.457592
v 0.000000 -12.944982 12.127382
v -1.349830 -12.875470 12.141405
v -1.316436 -12.193135 12.354553
v -1.350795 -12.641217 11.889978
v -1.359221 -12.310468 12.616167
v -1.340850 -10.979917 13.762287
v -0.837618 -11.185925 13.940424
v -1.319636 -12.683125 12.949518
v 0.000000 -7.560544 17.198879
v -0.847605 -9.486257 15.388393
v -0.870229 -7.508115 16.996428
v -1.157103 -9.128003 14.985163
v -0.887531 -5.690763 18.428814
v 0.000000 -2.845991 20.533539
v 0.000000 -0.448194 24.241144
v 0.000000 -1.267453 22.203072
v -0.892544 -1.212201 22.197811
v -1.469355 -0.695523 22.014553
v -0.900338 -2.789106 20.534428
v -1.216284 -2.446912 20.112440
v -1.314286 1.634555 25.537422
v -0.791161 1.148883 25.677469
v 0.000000 1.084185 25.632668
v -1.249123 4.615709 26.243835
v -0.809942 4.207979 26.318029
v 0.000000 4.153658 26.294294
v -0.808829 8.186007 29.025614
v -0.505248 7.904161 29.076899
v 0.000000 7.866610 29.060493
v -0.494415 12.102449 32.026428
v -0.326837 11.946871 32.054741
v 0.000000 11.926134 32.045685
v 1.418511 0.129550 24.141161
v 1.226267 -1.456967 21.017481
v 1.209079 -3.771146 19.153198
v 1.191859 -5.363782 17.994072
v 1.170848 -7.166226 16.574389
v 1.162618 -10.754361 13.510920
v 0.897770 -4.091260 19.593195
v 0.898655 -1.848737 21.389751
v 0.869357 -0.380277 24.288176
v 1.339447 -13.153401 12.571234
v 1.340172 -11.299451 14.105431
v 1.349830 -12.875470 12.141405
v 1.316436 -12.193135 12.354553
v 1.350795 -12.641217 11.889978
v 1.359221 -12.310468 12.616167
v 1.340850 -10.979917 13.762287
v 0.837618 -11.185925 13.940424
v 1.319636 -12.683125 12.949518
v 0.847605 -9.486257 15.388393
v 0.870229 -7.508115 16.996428
v 1.157103 -9.128003 14.985163
v 0.887531 -5.690763 18.428814
v 0.892544 -1.212201 22.197811
v 1.469355 -0.695523 22.014553
v 0.900338 -2.789106 20.534428
v 1.216284 -2.446912 20.112440
v 1.314286 1.634555 25.537422
v 0.791161 1.148883 25.677469
v 1.249123 4.615709 26.243835
v 0.809942 4.207979 26.318029
v 0.808829 8.186007 29.025614
v 0.505248 7.904161 29.076899
v 0.494415 12.102449 32.026428
v 0.326837 11.946871 32.054741
vn -0.9319 0.1919 0.3079
vn -0.9827 0.1408 -0.1201
vn -0.9953 0.0754 -0.0600
vn -0.7252 0.5771 0.3755
vn -0.0000 -0.6344 0.7730
vn -0.7294 -0.4319 0.5305
vn -0.6142 -0.7801 0.1189
vn -0.0000 -0.9828 0.1847
vn -0.5351 -0.5552 0.6367
vn -0.0000 -0.6606 0.7508
vn -0.0000 -0.6217 0.7833
vn -0.5648 -0.5185 0.6420
vn -0.7236 -0.6215 0.3001
vn -0.8153 -0.4572 0.3554
vn -0.4882 -0.6588 0.5724
vn -0.4361 -0.7912 0.4288
vn -0.0000 -0.8657 0.5005
vn -0.0000 -0.8284 0.5602
vn -0.3639 -0.7632 0.5339
vn -0.8731 -0.3172 0.3703
vn -0.2542 0.3985 0.8812
vn -0.0000 0.2057 0.9786
vn -0.0000 -0.5852 0.8109
vn -0.5164 -0.5040 0.6924
vn -0.5411 -0.5019 0.6748
vn -0.0000 -0.5883 0.8086
vn -0.7084 -0.5384 -0.4565
vn -0.0000 -0.7728 -0.6346
vn -0.8631 -0.3210 0.3899
vn -0.5196 -0.5413 0.6611
vn -0.5954 0.0812 0.7993
vn -0.0000 -0.6298 0.7767
vn -0.6666 -0.5880 0.4582
vn -0.8682 -0.2949 0.3990
vn -0.0000 -0.7301 0.6833
vn -0.0000 0.1830 0.9831
vn -0.8721 -0.3007 0.3861
vn -0.6855 -0.4637 -0.5613
vn -0.8724 -0.3105 0.3774
vn -0.0000 -0.6861 -0.7275
vn -0.0000 -0.4702 0.8825
vn -0.2753 -0.4529 0.8480
vn -0.4866 -0.3184 0.8135
vn -0.2413 -0.3623 0.9003
vn -0.5071 -0.3895 0.7689
vn -0.0000 -0.4030 0.9152
vn -0.0000 -0.5950 0.8037
vn -0.2948 -0.5563 0.7769
vn -0.5553 -0.4737 0.6836
vn -0.3379 -0.5484 0.7649
vn -0.5572 -0.4764 0.6801
vn -0.0000 -0.5925 0.8056
vn 0.9319 0.1919 0.3079
vn 0.7252 0.5771 0.3755
vn 0.9953 0.0754 -0.0600
vn 0.9827 0.1408 -0.1201
vn 0.6142 -0.7801 0.1189
vn 0.7294 -0.4319 0.5305
vn 0.5351 -0.5552 0.6367
vn 0.5648 -0.5185 0.6420
vn 0.7236 -0.6215 0.3001
vn 0.4361 -0.7912 0.4288
vn 0.4882 -0.6588 0.5724
vn 0.8153 -0.4572 0.3554
vn 0.3639 -0.7632 0.5339
vn 0.2542 0.3985 0.8812
vn 0.8731 -0.3172 0.3703
vn 0.5411 -0.5019 0.6748
vn 0.5164 -0.5040 0.6924
vn 0.7084 -0.5384 -0.4565
vn 0.5196 -0.5413 0.6611
vn 0.8631 -0.3210 0.3899
vn 0.5954 0.0812 0.7993
vn 0.6666 -0.5880 0.4582
vn 0.8682 -0.2949 0.3990
vn 0.8721 -0.3007 0.3861
vn 0.6855 -0.4637 -0.5613
vn 0.8724 -0.3105 0.3774
vn 0.2753 -0.4529 0.8480
vn 0.4866 -0.3184 0.8135
vn 0.5071 -0.3895 0.7689
vn 0.2413 -0.3623 0.9003
vn 0.2948 -0.5563 0.7769
vn 0.5553 -0.4737 0.6836
vn 0.5572 -0.4764 0.6801
vn 0.3379 -0.5484 0.7649
vt 0.703125 0.400879
vt 0.704102 0.410645
vt 0.703125 0.409668
vt 0.702148 0.401855
vt 0.695801 0.409180
vt 0.701172 0.409668
vt 0.700684 0.412109
vt 0.695801 0.412109
vt 0.699707 0.391602
vt 0.695801 0.391602
vt 0.696289 0.380371
vt 0.699707 0.380859
vt 0.703613 0.345703
vt 0.702637 0.350586
vt 0.700195 0.350098
vt 0.700195 0.345703
vt 0.696289 0.345703
vt 0.696289 0.336426
vt 0.700195 0.335938
vt 0.702148 0.391602
vt 0.699707 0.400879
vt 0.695801 0.400391
vt 0.696289 0.362793
vt 0.700195 0.362305
vt 0.699707 0.371094
vt 0.696289 0.371094
vt 0.701660 0.413086
vt 0.695801 0.415039
vt 0.702637 0.355957
vt 0.700195 0.355469
vt 0.700684 0.402832
vt 0.696289 0.355957
vt 0.703613 0.336426
vt 0.702637 0.362793
vt 0.696289 0.350098
vt 0.695801 0.401855
vt 0.702637 0.371094
vt 0.702637 0.414063
vt 0.702637 0.380859
vt 0.695801 0.416992
s 1
usemtl MI_NappyCat_Main
f 6/1/1 23/2/2 25/3/3 26/4/4
f 12/5/5 28/6/6 13/7/7 14/8/8
f 30/9/9 18/10/10 29/11/11 31/12/12
f 38/13/13 2/14/14 9/15/15 37/16/16
f 37/16/16 36/17/17 35/18/18 10/19/19
f 30/9/9 32/20/20 6/1/1 27/21/21
f 27/21/21 17/22/22 18/10/10 30/9/9
f 19/23/23 8/24/24 33/25/25 20/26/26
f 13/7/7 22/27/27 21/28/28 14/8/8
f 9/15/15 2/14/14 40/29/29 39/30/30
f 16/31/31 26/4/4 25/3/3 28/6/6
f 8/24/24 19/23/23 34/32/32 39/30/30
f 1/33/33 38/13/13 37/16/16 10/19/19
f 39/30/30 40/29/29 3/34/34 8/24/24
f 37/16/16 9/15/15 11/35/35 36/17/17
f 16/31/31 28/6/6 12/5/5 15/36/36
f 33/25/25 8/24/24 3/34/34 4/37/37
f 31/12/12 29/11/11 20/26/26 33/25/25
f 23/2/2 24/38/38 22/27/27 25/3/3
f 4/37/37 5/39/39 31/12/12 33/25/25
f 31/12/12 5/39/39 32/20/20 30/9/9
f 39/30/30 34/32/32 11/35/35 9/15/15
f 16/31/31 15/36/36 27/21/21
f 27/21/21 15/36/36 17/22/22
f 27/21/21 26/4/4 16/31/31
f 26/4/4 27/21/21 6/1/1
f 28/6/6 25/3/3 22/27/27 13/7/7
f 24/38/38 7/40/40 21/28/28 22/27/27
f 10/19/19 35/18/18 43/18/41 42/19/42
f 1/33/33 10/19/19 42/19/42 41/33/43
f 41/33/43 42/19/42 45/19/44 44/33/45
f 42/19/42 43/18/41 46/18/46 45/19/44
f 45/19/44 46/18/46 49/18/47 48/19/48
f 44/33/45 45/19/44 48/19/48 47/33/49
f 47/33/49 48/19/48 51/19/50 50/33/51
f 48/19/48 49/18/47 52/18/52 51/19/50
f 58/1/53 68/4/54 67/3/55 65/2/56
f 12/5/5 14/8/8 62/7/57 70/6/58
f 71/9/59 72/12/60 29/11/11 18/10/10
f 76/13/61 75/16/62 60/15/63 54/14/64
f 75/16/62 61/19/65 35/18/18 36/17/17
f 71/9/59 69/21/66 58/1/53 73/20/67
f 69/21/66 71/9/59 18/10/10 17/22/22
f 19/23/23 20/26/26 74/25/68 59/24/69
f 62/7/57 14/8/8 21/28/28 64/27/70
f 60/15/63 77/30/71 78/29/72 54/14/64
f 63/31/73 70/6/58 67/3/55 68/4/54
f 59/24/69 77/30/71 34/32/32 19/23/23
f 53/33/74 61/19/65 75/16/62 76/13/61
f 77/30/71 59/24/69 55/34/75 78/29/72
f 75/16/62 36/17/17 11/35/35 60/15/63
f 63/31/73 15/36/36 12/5/5 70/6/58
f 74/25/68 56/37/76 55/34/75 59/24/69
f 72/12/60 74/25/68 20/26/26 29/11/11
f 65/2/56 67/3/55 64/27/70 66/38/77
f 56/37/76 74/25/68 72/12/60 57/39/78
f 72/12/60 71/9/59 73/20/67 57/39/78
f 77/30/71 60/15/63 11/35/35 34/32/32
f 63/31/73 69/21/66 15/36/36
f 69/21/66 17/22/22 15/36/36
f 69/21/66 63/31/73 68/4/54
f 68/4/54 58/1/53 69/21/66
f 70/6/58 62/7/57 64/27/70 67/3/55
f 66/38/77 64/27/70 21/28/28 7/40/40
f 61/19/65 80/19/79 43/18/41 35/18/18
f 53/33/74 79/33/80 80/19/79 61/19/65
f 79/33/80 81/33/81 82/19/82 80/19/79
f 80/19/79 82/19/82 46/18/46 43/18/41
f 82/19/82 84/19/83 49/18/47 46/18/46
f 81/33/81 83/33/84 84/19/83 82/19/82
f 83/33/84 85/33/85 86/19/86 84/19/83
f 84/19/83 86/19/86 52/18/52 49/18/47
