# Blender 4.0.2
# www.blender.org
mtllib lowerarm.mtl
o lowerarm
v -8.010938 2.050421 3.570761
v 4.128162 0.159964 0.904707
v 4.401286 -1.799363 1.142863
v -0.690516 -0.550393 -7.087473
v -4.366817 -0.475084 -6.940804
v -0.975703 -2.429788 -6.968111
v -1.994475 -6.158006 -5.625830
v -4.869582 -4.684365 -5.977856
v -7.307115 0.806502 -4.316540
v -7.523841 -3.972955 -3.591045
v -5.646667 -15.618887 -6.112511
v -2.747929 -22.389868 -5.900555
v -6.072669 -31.304495 -5.906975
v -8.387435 -39.207981 -3.526537
v -9.362586 -47.870403 -0.163837
v -8.583454 -32.926472 -0.834692
v -7.823306 -20.391943 -3.756870
v -6.130088 -23.628332 3.525934
v -7.900119 -32.029552 1.557739
v -6.089824 -8.045328 4.771851
v -7.872674 -9.007929 2.579460
v -8.606564 -6.825425 -0.220035
v -7.619697 -6.692666 -3.543520
v -8.317214 -13.052134 -0.726696
v -9.371806 -3.161470 -0.101721
v -9.328515 -0.257661 -0.217890
v -8.716427 1.972220 -0.287927
v -4.040383 -23.588621 4.488836
v -3.796849 -6.176896 6.259331
v -6.389636 -0.549676 6.139420
v -8.542761 -1.348436 3.644663
v -6.192815 1.903174 6.243393
v -1.133602 -7.122170 5.520437
v -6.305797 -35.159786 3.560225
v -1.822633 -22.961233 4.011950
v -4.301612 -52.576710 6.223206
v -7.075202 -52.932758 5.165932
v -4.108359 -35.653515 4.626629
v -0.049493 -13.469793 3.099211
v 0.817640 -52.162342 3.362314
v -1.370517 -51.841328 5.577751
v -1.608260 -36.608356 4.565119
v -0.228275 -26.729574 2.518728
v 0.441533 -41.051502 3.217062
v 0.715594 -27.667624 0.453623
v 1.853328 -53.010609 0.890023
v 2.589583 -60.303387 2.767229
v 3.376941 -62.500156 2.337727
v 2.853183 -62.375118 3.589411
v -9.114509 -52.584309 3.002934
v -4.310861 -58.867222 7.393641
v -3.115569 -37.014439 -5.397650
v -6.329349 -54.388477 -4.568127
v -8.474139 -48.375782 -2.990963
v -10.311755 -56.826702 0.347960
v -10.003964 -60.588825 4.124483
v -7.537606 -61.165592 6.801943
v -4.219295 -66.863274 9.948008
v -0.841171 -62.846760 7.793936
v 1.745550 -61.530331 4.850275
v 0.671501 -70.436928 9.349047
v 3.435425 -70.537254 6.033274
v 0.186592 -74.201942 8.532598
v 2.839143 -73.931282 5.846714
v -3.575284 -71.312782 10.843050
v -11.224462 -68.296410 6.234974
v -3.428271 -74.532341 9.878992
v -7.343259 -75.095558 9.221769
v -8.189931 -71.787971 10.134832
v -10.924207 -72.161003 6.531876
v -8.213632 -68.207436 9.504881
v 4.007017 -65.150711 2.551018
v 4.295583 -69.098946 1.905655
v 3.586517 -73.858238 2.288723
v 1.207135 -76.089745 5.152906
v -2.196892 -75.933815 7.960566
v -6.185920 -76.596260 7.410124
v 1.936256 -76.052086 2.467785
v 2.882622 -61.188061 1.425987
v 4.255923 -65.506287 1.345593
v -9.552962 -74.990883 6.102345
v -11.316371 -72.422218 2.312563
v -12.149724 -67.933769 1.605276
v -10.229543 -67.677391 -1.980947
v -10.022162 -72.689354 -1.358700
v -9.623538 -75.713478 -0.910730
v -10.139373 -75.146584 2.617392
v -7.466990 -72.615150 -4.360157
v -6.760715 -75.502312 -3.335770
v -8.343566 -76.589943 3.954193
v -7.410531 -76.878853 0.412634
v -5.853488 -76.648018 -1.467943
v -3.519715 -74.853035 -3.706038
v -3.663413 -71.255608 -5.278738
v 0.091386 -69.857307 -4.417774
v -0.535779 -66.808311 -4.956072
v 3.311881 -65.824738 -0.673570
v 4.000929 -65.595810 0.325228
v -0.365340 -74.423515 -2.838184
v 2.901335 -71.500130 -1.425508
v 2.397484 -74.125313 -0.886780
v -2.163789 -76.118141 -1.965639
v 1.124078 -75.970207 -0.061170
v 0.976368 -58.281948 -1.097662
v 0.662449 -62.190174 -1.739345
v 2.730986 -62.581333 0.257771
v 1.130627 -47.778568 -1.722419
v -0.903053 -46.805500 -3.665964
v -1.570946 -61.787403 -4.234367
v -1.151240 -64.214340 -4.899519
v -3.649807 -64.971130 -7.313326
v -7.403035 -67.024269 -5.318756
v -2.346452 -61.977238 -6.419874
v -6.124494 -62.445263 -6.801823
v -9.483455 -63.149952 -2.454199
v -9.047164 -58.567051 -2.232843
v -7.097522 -59.811985 -4.699224
v -6.099303 -60.633579 -6.195246
v -3.407485 -61.752941 -7.448423
v -3.489901 -58.227673 -4.783674
v -4.829623 -61.066189 -7.162678
v -5.036675 -58.248463 -5.240124
v -3.406510 -55.257092 -4.409266
v -0.765077 -32.923199 -4.059813
v -0.368274 -12.548822 -3.841249
v 0.686360 -6.211877 -4.155249
v 2.144176 -2.579210 -5.456554
v 4.159095 -1.735261 -2.662504
v 3.717206 -3.955980 -2.441006
v 2.185409 -7.113793 -1.824602
v 1.009893 -11.980204 -1.665313
v 0.501808 -27.133680 -1.906379
v 1.053658 -12.289621 0.679240
v 2.451683 -7.426377 1.013333
v 3.861251 -4.074166 1.022251
v -0.745361 -0.437837 7.057739
v -3.667811 1.128165 7.568928
v 2.369339 0.523070 4.502127
v 1.674328 -1.672075 4.288099
v 1.213558 -5.423799 3.848322
v -6.701892 -76.870979 3.481989
v -4.733365 -76.587196 6.389940
v -0.839371 -76.743904 0.516861
v -0.810876 -76.753502 4.791555
v -0.210562 -76.838524 2.619192
v -6.586919 3.980231 3.299134
v 4.385732 1.766700 -2.369777
v 2.610137 1.036185 -5.337360
v 4.395713 2.269881 0.887070
v 0.036102 1.627196 -6.343710
v -3.149634 2.377967 -6.078493
v -5.762374 3.366065 -3.719177
v -7.225196 3.909484 -0.191944
v -4.942004 3.847014 5.717150
v 0.052240 3.028075 6.355759
v -2.549769 3.496733 6.851454
v 2.804451 2.598387 4.141769
v 3.301970 3.950232 -1.848783
v 1.695843 3.747412 -4.100006
v -1.805558 4.364562 -4.362577
v -3.365769 5.881545 -0.610134
v -3.605916 5.472861 3.053976
v -0.484544 4.974189 4.438581
v 3.019690 4.480872 1.187935
v 0.156425 4.958282 -2.802347
v -2.545792 5.607673 -2.251682
v -2.066514 5.890273 2.053519
v 1.491210 5.238669 -0.428856
vn -0.6022 -0.1072 -0.7912
vn 0.0717 -0.2481 -0.9661
vn -0.4871 -0.2656 -0.8320
vn -0.0809 -0.9192 -0.3855
vn 0.2254 -0.9601 -0.1656
vn -0.1800 -0.9775 -0.1101
vn 0.8997 -0.2833 -0.3321
vn 0.5583 -0.3136 -0.7681
vn 0.8844 -0.3338 -0.3263
vn 0.8040 0.0458 0.5929
vn 0.9855 0.0516 0.1615
vn 0.8254 0.0403 0.5631
vn -0.2409 0.3007 -0.9228
vn 0.2710 0.1493 -0.9509
vn -0.5509 0.0264 -0.8341
vn 0.8107 0.2753 -0.5167
vn 0.7996 0.0817 -0.5950
vn 0.7037 0.1709 -0.6897
vn 0.9948 -0.0691 -0.0755
vn 0.9403 0.2191 0.2604
vn 0.8780 -0.0225 0.4780
vn -0.8738 0.1278 0.4692
vn -0.5155 0.2661 0.8145
vn -0.5580 0.1348 0.8188
vn 0.3014 -0.1893 -0.9345
vn -0.3791 -0.0007 -0.9254
vn -0.3700 -0.0647 -0.9268
vn 0.9427 -0.1100 0.3150
vn 0.9332 -0.1175 -0.3397
vn 0.9597 -0.0584 0.2749
vn 0.5954 -0.0513 -0.8018
vn 0.9510 0.0079 -0.3090
vn 0.8663 -0.0368 -0.4982
vn 0.7342 -0.1773 0.6554
vn 0.4573 -0.1414 0.8780
vn 0.7030 -0.2123 0.6787
vn -0.4980 -0.0652 0.8647
vn 0.0356 0.2739 0.9611
vn -0.4497 0.1922 0.8722
vn 0.4612 0.1425 0.8758
vn 0.8577 0.0892 0.5064
vn -0.7052 0.1557 -0.6917
vn -0.8307 0.0672 -0.5526
vn -0.8173 0.1134 -0.5650
vn -0.0944 0.2276 0.9692
vn -0.0968 0.1506 0.9839
vn -0.9967 0.0736 0.0348
vn -0.8816 0.0201 -0.4715
vn -0.8726 -0.0060 -0.4885
vn -0.8415 -0.0206 -0.5398
vn -0.9881 0.1013 -0.1159
vn -0.9963 0.0542 -0.0667
vn -0.2949 0.0593 -0.9537
vn 0.3061 0.0595 -0.9501
vn 0.7430 0.0681 -0.6659
vn -0.8802 0.0447 0.4726
vn -0.8800 -0.1858 0.4372
vn 0.4129 0.0935 0.9060
vn -0.9731 -0.2225 -0.0605
vn -0.7587 -0.5440 0.3584
vn -0.8878 -0.1010 0.4490
vn -0.9952 -0.0550 -0.0810
vn -0.9972 -0.0745 0.0013
vn 0.4293 0.2783 0.8592
vn 0.7520 0.2003 0.6279
vn 0.7522 -0.0843 -0.6535
vn 0.3394 0.0036 -0.9406
vn 0.9185 -0.2734 0.2858
vn 0.6168 0.0641 -0.7845
vn 0.1873 -0.2378 -0.9531
vn -0.8335 -0.0675 -0.5484
vn -0.1566 -0.1823 0.9707
vn 0.4270 -0.1215 0.8960
vn -0.1239 0.0955 0.9877
vn -0.5965 -0.0592 0.8004
vn -0.8494 0.3429 0.4013
vn -0.8986 -0.0173 0.4383
vn -0.7253 0.2940 -0.6225
vn -0.3732 0.1517 -0.9153
vn -0.8572 0.1871 0.4797
vn 0.0996 -0.9823 0.1585
vn -0.4772 -0.8648 0.1563
vn -0.0676 -0.9961 0.0572
vn -0.9866 -0.0680 -0.1483
vn 0.2141 0.0664 -0.9746
vn 0.6501 -0.2575 -0.7149
vn -0.8874 0.4432 -0.1270
vn 0.2339 -0.9717 -0.0332
vn -0.1905 0.0482 0.9805
vn 0.4633 -0.0165 0.8860
vn -0.1182 -0.0299 0.9925
vn 0.4414 -0.4712 -0.7636
vn 0.1395 -0.5037 -0.8526
vn 0.7300 0.1733 -0.6611
vn 0.8823 0.2091 -0.4217
vn 0.7159 0.1130 -0.6890
vn 0.7488 -0.0176 -0.6626
vn 0.2872 -0.0643 -0.9557
vn 0.8437 0.2980 0.4466
vn 0.5531 0.0483 0.8317
vn -0.3724 0.0014 -0.9281
vn 0.9982 0.0492 -0.0335
vn -0.6139 0.3001 0.7301
vn -0.7385 -0.5455 -0.3963
vn 0.5576 -0.7375 -0.3810
vn 0.1742 -0.8136 -0.5547
vn 0.5071 -0.0969 -0.8564
vn 0.7690 -0.4224 -0.4798
vn -0.8858 0.1112 0.4506
vn 0.9726 0.2302 0.0334
vn 0.9379 0.2414 -0.2493
vn 0.9317 0.2508 0.2627
vn 0.6726 -0.7400 0.0032
vn 0.9284 -0.3712 -0.0167
vn 0.1871 -0.9680 0.1672
vn 0.0915 -0.1505 -0.9844
vn -0.8408 -0.2286 -0.4908
vn -0.3238 -0.5702 -0.7550
vn 0.9465 -0.1285 -0.2959
vn -0.5827 0.0576 0.8106
vn -0.5698 -0.0326 0.8211
vn 0.9808 0.1923 -0.0322
vn 0.9192 0.1080 -0.3788
vn -0.9857 0.1292 -0.1085
vn -0.8455 -0.5340 0.0004
vn 0.8404 -0.1022 0.5322
vn 0.9327 -0.2903 0.2139
vn 0.3370 0.2955 -0.8939
vn -0.5563 0.3115 -0.7704
vn -0.0595 0.4398 -0.8961
vn 0.1088 -0.0250 0.9937
vn 0.5285 -0.4065 0.7453
vn 0.9797 -0.1226 0.1588
vn -0.6156 -0.1456 0.7745
vn 0.1317 -0.8034 0.5807
vn -0.2404 -0.8830 0.4031
vn -0.7728 -0.0193 -0.6343
vn 0.8228 -0.1530 -0.5473
vn 0.1176 -0.4520 0.8842
vn 0.5795 -0.7425 0.3360
vn -0.9998 -0.0004 -0.0185
vn -0.8366 0.0172 -0.5475
vn 0.8244 -0.3699 0.4284
vn -0.3772 -0.5507 0.7446
vn 0.7046 -0.2156 0.6761
vn 0.0061 0.5642 0.8256
vn -0.2090 0.4889 -0.8469
vn 0.2109 0.4051 -0.8896
vn 0.6691 0.1911 -0.7182
vn 0.9416 0.2226 -0.2527
vn 0.4341 0.3708 0.8210
vn -0.3985 0.6932 0.6005
vn 0.9531 0.2077 0.2200
vn -0.6408 0.7559 -0.1345
vn 0.7356 0.2985 0.6082
vn -0.5027 0.6913 -0.5191
vn -0.6446 0.7274 0.2352
vn -0.2471 0.9373 0.2459
vn 0.6529 0.6981 -0.2939
vn 0.6566 0.7251 0.2075
vn 0.2432 0.8579 0.4525
vn -0.2159 0.9670 -0.1354
vn 0.0246 0.7760 -0.6303
vn 0.4094 0.6881 -0.5990
vn -0.0634 0.9275 -0.3683
vn 0.2149 0.9013 -0.3763
vn 0.0808 0.9852 0.1513
vn 0.3389 0.9395 -0.0504
vt 0.828125 0.519531
vt 0.843009 0.536762
vt 0.827637 0.542500
vt 0.508301 0.864014
vt 0.505552 0.886399
vt 0.498972 0.859895
vt 0.867188 0.264648
vt 0.854997 0.261307
vt 0.868652 0.249173
vt 0.743164 0.408203
vt 0.738322 0.352873
vt 0.747929 0.349121
vt 0.837663 0.495670
vt 0.842438 0.498414
vt 0.833472 0.501633
vt 0.881235 0.499680
vt 0.878385 0.513623
vt 0.868550 0.496831
vt 0.698475 0.523842
vt 0.706242 0.505794
vt 0.713915 0.532935
vt 0.785900 0.461073
vt 0.768494 0.497529
vt 0.772584 0.462148
vt 0.842001 0.262343
vt 0.825992 0.302407
vt 0.828601 0.257087
vt 0.883301 0.238770
vt 0.867958 0.239180
vt 0.881348 0.228516
vt 0.848806 0.432943
vt 0.859702 0.350492
vt 0.861053 0.436212
vt 0.735352 0.240519
vt 0.750160 0.264551
vt 0.736837 0.257426
vt 0.764160 0.542969
vt 0.749279 0.521617
vt 0.765076 0.528374
vt 0.747061 0.455182
vt 0.733281 0.453534
vt 0.825684 0.489258
vt 0.812988 0.504150
vt 0.813057 0.484482
vt 0.755233 0.487041
vt 0.759569 0.459872
vt 0.798828 0.375977
vt 0.811229 0.322252
vt 0.811417 0.402361
vt 0.812500 0.441406
vt 0.799026 0.478474
vt 0.799800 0.440596
vt 0.827754 0.466407
vt 0.841173 0.469626
vt 0.870118 0.479408
vt 0.787462 0.372096
vt 0.780762 0.543945
vt 0.755836 0.391026
vt 0.796875 0.544678
vt 0.780273 0.557373
vt 0.785471 0.274045
vt 0.798681 0.250699
vt 0.798340 0.265625
vt 0.737545 0.502371
vt 0.724788 0.493597
vt 0.852367 0.288949
vt 0.837362 0.330720
vt 0.882791 0.250278
vt 0.856934 0.518311
vt 0.842632 0.245493
vt 0.812500 0.523353
vt 0.761734 0.260803
vt 0.750409 0.235491
vt 0.762610 0.230127
vt 0.772945 0.238165
vt 0.785645 0.228516
vt 0.784906 0.242234
vt 0.815642 0.234908
vt 0.829850 0.239523
vt 0.783454 0.495037
vt 0.478868 0.878239
vt 0.483681 0.860744
vt 0.487003 0.867130
vt 0.797577 0.525366
vt 0.842773 0.237793
vt 0.855469 0.244409
vt 0.800293 0.229492
vt 0.498063 0.891599
vt 0.766638 0.387564
vt 0.756558 0.332955
vt 0.766174 0.335593
vt 0.857422 0.552002
vt 0.842773 0.553467
vt 0.847660 0.498244
vt 0.855101 0.496544
vt 0.855957 0.507080
vt 0.848207 0.374709
vt 0.836185 0.391906
vt 0.715527 0.495420
vt 0.730724 0.535090
vt 0.823382 0.368056
vt 0.721771 0.453922
vt 0.720407 0.251572
vt 0.773438 0.228027
vt 0.812012 0.556885
vt 0.828125 0.565186
vt 0.812012 0.566406
vt 0.869629 0.561035
vt 0.849660 0.561639
vt 0.858398 0.531293
vt 0.872070 0.551025
vt 0.780872 0.528325
vt 0.709256 0.494122
vt 0.708626 0.486821
vt 0.716378 0.485576
vt 0.880859 0.564453
vt 0.886230 0.553223
vt 0.488980 0.891238
vt 0.842773 0.510498
vt 0.812012 0.544434
vt 0.828125 0.555420
vt 0.863281 0.286621
vt 0.776723 0.385811
vt 0.776603 0.335791
vt 0.889979 0.513286
vt 0.885136 0.513514
vt 0.799316 0.239258
vt 0.796387 0.557373
vt 0.742539 0.293033
vt 0.725586 0.268066
vt 0.843275 0.482821
vt 0.832031 0.493164
vt 0.835520 0.482274
vt 0.747070 0.540527
vt 0.729980 0.551270
vt 0.873769 0.288996
vt 0.773594 0.269157
vt 0.788981 0.566611
vt 0.474700 0.889351
vt 0.471436 0.873047
vt 0.699219 0.547119
vt 0.814092 0.254802
vt 0.874023 0.539551
vt 0.500977 0.900635
vt 0.510742 0.894409
vt 0.746582 0.554443
vt 0.875041 0.456615
vt 0.738975 0.562994
vt 0.489014 0.900757
vt 0.878906 0.267578
vt 0.798828 0.291643
vt 0.813465 0.265631
vt 0.702637 0.559570
vt 0.714355 0.547852
vt 0.715820 0.559814
vt 0.890242 0.531038
vt 0.763184 0.566650
vt 0.763672 0.556396
vt 0.718750 0.230957
vt 0.735352 0.229980
vt 0.883984 0.491461
vt 0.731381 0.289930
vt 0.762695 0.228516
vt 0.830078 0.236328
vt 0.854980 0.236816
vt 0.867188 0.233398
vt 0.750977 0.229492
vt 0.815918 0.232422
vt 0.778433 0.228227
vt 0.756888 0.229000
vt 0.851109 0.237126
vt 0.724712 0.230606
vt 0.820263 0.233621
vt 0.848022 0.237373
vt 0.770078 0.228546
vt 0.779119 0.231760
vt 0.514164 0.878733
vt 0.700914 0.506437
vt 0.718750 0.240723
vt 0.869629 0.353097
s 1
usemtl MI_NappyCat_Main
f 112/1/1 94/2/2 88/3/3
f 92/4/4 143/5/5 91/6/6
f 130/7/7 126/8/8 129/9/9
f 44/10/10 45/11/11 43/12/12
f 121/13/13 119/14/14 114/15/15
f 106/16/16 97/17/17 105/18/18
f 73/19/19 72/20/20 62/21/21
f 50/22/22 57/23/23 37/24/24
f 7/25/25 11/26/26 8/27/27
f 3/28/28 128/29/29 2/30/30
f 108/31/31 132/32/32 107/33/33
f 139/34/34 33/35/35 140/36/36
f 69/37/37 58/38/38 71/39/39
f 44/10/10 41/40/40 40/41/41
f 117/42/42 115/43/43 116/44/44
f 37/24/24 51/45/45 36/46/46
f 16/47/47 17/48/48 14/49/49
f 54/50/50 55/51/51 15/52/52
f 53/53/53 54/50/50 14/49/49
f 105/18/18 123/54/54 104/55/55
f 15/52/52 19/56/56 16/47/47
f 116/44/44 53/53/53 117/42/42
f 71/39/39 70/57/57 69/37/37
f 42/58/58 36/46/46 41/40/40
f 82/59/59 81/60/60 70/57/57
f 21/61/61 25/62/62 22/63/63
f 40/41/41 59/64/64 60/65/65
f 7/25/25 125/66/66 12/67/67
f 128/29/29 135/68/68 129/9/9
f 96/69/69 105/18/18 97/17/17
f 6/70/70 126/8/8 7/25/25
f 57/23/23 58/38/38 51/45/45
f 88/3/3 84/71/71 112/1/1
f 29/72/72 136/73/73 137/74/74
f 30/75/75 1/76/76 31/77/77
f 8/27/27 9/78/78 5/79/79
f 55/51/51 56/80/80 50/22/22
f 142/81/81 90/82/82 141/83/83
f 55/51/51 84/71/71 83/84/84
f 4/85/85 127/86/86 6/70/70
f 27/87/87 31/77/77 1/76/76
f 145/88/88 142/81/81 141/83/83
f 38/89/89 35/90/90 28/91/91
f 94/2/2 99/92/92 93/93/93
f 113/94/94 109/95/95 110/96/96
f 124/97/97 52/98/98 12/67/67
f 62/21/21 49/99/99 60/65/65
f 60/65/65 61/100/100 62/21/21
f 52/98/98 53/53/53 13/101/101
f 40/41/41 46/102/102 44/10/10
f 135/103/68 139/34/34 140/36/36
f 30/75/75 137/74/74 32/104/103
f 86/105/104 92/106/4 91/107/6
f 99/92/92 103/108/105 102/109/106
f 95/110/107 101/111/108 99/92/92
f 66/112/109 82/59/59 70/57/57
f 53/53/53 52/98/98 123/54/54
f 48/113/110 79/114/111 47/115/112
f 53/53/53 116/44/44 54/50/50
f 78/116/113 101/111/108 74/117/114
f 144/118/115 142/81/81 145/88/88
f 111/119/116 113/94/94 110/96/96
f 82/59/59 84/71/71 85/120/117
f 7/25/25 8/27/27 6/70/70
f 90/82/82 91/6/6 141/83/83
f 89/121/118 85/120/117 88/3/3
f 12/67/67 13/101/101 11/26/26
f 132/32/32 125/66/66 131/122/119
f 29/72/72 35/90/90 33/35/35
f 56/80/80 83/84/84 66/112/109
f 141/83/83 143/5/5 145/88/88
f 60/65/65 47/115/112 40/41/41
f 34/123/120 28/91/91 18/124/121
f 106/16/16 80/125/122 98/126/123
f 27/87/87 9/78/78 26/127/124
f 87/128/125 85/120/117 86/105/104
f 39/129/126 134/130/127 140/36/36
f 58/38/38 59/64/64 51/45/45
f 113/94/94 120/131/128 109/95/95
f 118/132/129 114/15/15 117/42/42
f 109/95/95 120/131/128 123/54/54
f 118/132/129 122/133/130 121/13/13
f 117/42/42 122/133/130 118/132/129
f 117/42/42 53/53/53 122/133/130
f 65/134/131 63/135/132 61/100/100
f 41/40/40 51/45/45 59/64/64
f 19/56/56 37/24/24 34/123/120
f 52/98/98 124/97/97 108/31/31
f 130/7/7 133/136/133 131/122/119
f 104/55/55 108/31/31 107/33/33
f 29/72/72 30/75/75 20/137/134
f 87/128/125 90/138/82 81/60/60
f 142/81/81 76/139/135 77/140/136
f 97/17/17 95/110/107 96/69/69
f 102/109/106 89/121/118 93/93/93
f 38/89/89 37/24/24 36/46/46
f 28/91/91 20/137/134 18/124/121
f 115/43/43 112/1/1 84/71/71
f 62/21/21 74/141/114 73/19/19
f 26/127/124 10/142/137 25/62/62
f 20/137/134 31/77/77 21/61/61
f 100/143/138 74/117/114 101/111/108
f 78/144/113 143/5/5 103/145/105
f 20/137/134 21/61/61 18/124/121
f 131/122/119 126/8/8 130/7/7
f 72/20/20 79/114/111 48/113/110
f 69/37/37 67/146/139 65/134/131
f 107/33/33 46/147/102 104/55/55
f 87/128/125 91/107/6 90/138/82
f 67/146/139 76/148/135 63/135/132
f 39/129/126 33/35/35 35/90/90
f 88/3/3 93/93/93 89/121/118
f 122/133/130 123/54/54 120/131/128
f 76/139/135 144/118/115 75/149/140
f 132/32/32 46/147/102 107/33/33
f 129/9/9 127/86/86 128/29/29
f 96/69/69 111/119/116 110/96/96
f 43/12/12 35/90/90 42/58/58
f 130/7/7 135/68/68 134/150/127
f 102/109/106 93/93/93 99/92/92
f 24/151/141 23/152/142 17/48/48
f 78/153/113 64/154/143 75/155/140
f 63/135/132 75/155/140 64/154/143
f 98/126/123 73/156/19 97/17/17
f 81/60/60 77/157/136 68/158/144
f 23/152/142 8/27/27 11/26/26
f 47/115/112 60/65/65 49/99/99
f 17/48/48 11/26/26 13/101/101
f 61/100/100 64/154/143 62/21/21
f 25/62/62 23/152/142 22/63/63
f 111/119/116 114/15/15 119/14/14
f 139/34/34 2/159/30 138/160/145
f 16/47/47 19/56/56 24/151/141
f 112/1/1 111/119/116 94/2/2
f 47/115/112 46/102/102 40/41/41
f 104/55/55 79/161/111 106/16/16
f 131/122/119 133/136/133 132/32/32
f 75/149/140 145/88/88 78/144/113
f 118/132/129 121/13/13 114/15/15
f 122/133/130 119/14/14 121/13/13
f 59/64/64 58/38/38 61/100/100
f 68/158/144 76/148/135 67/146/139
f 81/60/60 69/37/37 70/57/57
f 43/12/12 133/162/133 39/129/126
f 56/80/80 71/39/39 57/23/23
f 136/73/73 156/163/146 137/74/74
f 9/78/78 151/164/147 5/79/79
f 4/85/85 151/164/147 150/85/148
f 128/29/29 148/165/149 147/166/150
f 138/160/145 155/167/151 136/73/73
f 137/74/74 154/104/152 32/104/103
f 2/30/30 147/166/150 149/30/153
f 1/76/76 153/87/154 27/87/87
f 2/159/30 157/160/155 138/160/145
f 9/78/78 153/87/154 152/168/156
f 32/104/103 146/76/157 1/76/76
f 156/163/146 162/169/158 154/104/152
f 149/30/153 158/166/159 164/30/160
f 155/167/151 163/170/161 156/163/146
f 153/87/154 162/169/158 161/87/162
f 150/85/148 160/164/163 159/171/164
f 149/159/153 164/172/160 157/160/155
f 152/168/156 160/164/163 151/164/147
f 157/160/155 163/170/161 155/167/151
f 147/166/150 159/171/164 158/166/159
f 152/168/156 161/87/162 166/173/165
f 160/164/163 165/174/166 159/171/164
f 164/172/160 167/175/167 163/170/161
f 159/171/164 168/176/168 158/166/159
f 166/173/165 168/176/168 165/174/166
f 136/73/73 139/34/34 138/160/145
f 92/4/4 102/177/106 143/5/5
f 48/113/110 47/115/112 49/99/99
f 44/10/10 46/102/102 45/11/11
f 128/29/29 127/86/86 148/165/149
f 104/55/55 46/147/102 79/161/111
f 73/19/19 80/178/122 72/20/20
f 96/69/69 95/110/107 94/2/2
f 95/110/107 97/17/17 100/143/138
f 43/12/12 39/129/126 35/90/90
f 50/22/22 56/80/80 57/23/23
f 108/31/31 124/97/97 132/32/32
f 139/34/34 136/73/73 33/35/35
f 69/37/37 65/134/131 58/38/38
f 44/10/10 42/58/58 41/40/40
f 8/27/27 23/152/142 10/142/137
f 117/42/42 114/15/15 115/43/43
f 37/24/24 57/23/23 51/45/45
f 16/47/47 24/151/141 17/48/48
f 54/50/50 116/44/44 55/51/51
f 105/18/18 109/95/95 123/54/54
f 7/25/25 126/8/8 125/66/66
f 71/39/39 66/112/109 70/57/57
f 42/58/58 38/89/89 36/46/46
f 82/59/59 87/128/125 81/60/60
f 21/61/61 31/77/77 25/62/62
f 116/44/44 115/43/43 55/51/51
f 40/41/41 41/40/40 59/64/64
f 128/29/29 3/28/28 135/68/68
f 102/177/106 103/145/105 143/5/5
f 96/69/69 110/96/96 105/18/18
f 6/70/70 127/86/86 126/8/8
f 120/131/128 113/94/94 119/14/14
f 57/23/23 71/39/39 58/38/38
f 139/34/34 135/103/68 3/179/28
f 30/75/75 32/104/103 1/76/76
f 132/32/32 133/136/133 45/180/11
f 8/27/27 10/142/137 9/78/78
f 142/81/81 77/140/136 90/82/82
f 55/51/51 115/43/43 84/71/71
f 4/85/85 148/165/149 127/86/86
f 27/87/87 26/127/124 31/77/77
f 38/89/89 42/58/58 35/90/90
f 94/2/2 95/110/107 99/92/92
f 129/9/9 126/8/8 127/86/86
f 134/130/127 135/103/68 140/36/36
f 62/21/21 72/20/20 49/99/99
f 60/65/65 59/64/64 61/100/100
f 39/129/126 140/36/36 33/35/35
f 15/52/52 55/51/51 50/22/22
f 86/105/104 89/121/118 92/106/4
f 99/92/92 101/111/108 103/108/105
f 95/110/107 100/143/138 101/111/108
f 66/112/109 83/84/84 82/59/59
f 78/116/113 103/108/105 101/111/108
f 111/119/116 119/14/14 113/94/94
f 82/59/59 83/84/84 84/71/71
f 13/101/101 53/53/53 14/49/49
f 89/121/118 86/105/104 85/120/117
f 61/100/100 58/38/38 65/134/131
f 22/63/63 24/151/141 21/61/61
f 42/58/58 44/10/10 43/12/12
f 17/48/48 23/152/142 11/26/26
f 15/52/52 16/47/47 14/49/49
f 7/25/25 12/67/67 11/26/26
f 19/56/56 34/123/120 18/124/121
f 29/72/72 28/91/91 35/90/90
f 18/124/121 21/61/61 19/56/56
f 56/80/80 55/51/51 83/84/84
f 15/52/52 50/22/22 19/56/56
f 141/83/83 91/6/6 143/5/5
f 12/67/67 52/98/98 13/101/101
f 34/123/120 38/89/89 28/91/91
f 106/16/16 79/161/111 80/125/122
f 105/18/18 104/55/55 106/16/16
f 87/128/125 82/59/59 85/120/117
f 106/16/16 98/126/123 97/17/17
f 39/129/126 133/162/133 134/130/127
f 65/134/131 67/146/139 63/135/132
f 41/40/40 36/46/46 51/45/45
f 19/56/56 50/22/22 37/24/24
f 26/127/124 25/62/62 31/77/77
f 6/70/70 8/27/27 5/79/79
f 130/7/7 134/150/127 133/136/133
f 104/55/55 123/54/54 108/31/31
f 132/32/32 124/97/97 125/66/66
f 102/109/106 92/106/4 89/121/118
f 38/89/89 34/123/120 37/24/24
f 28/91/91 29/72/72 20/137/134
f 115/43/43 114/15/15 112/1/1
f 62/21/21 64/154/143 74/141/114
f 26/127/124 9/78/78 10/142/137
f 20/137/134 30/75/75 31/77/77
f 100/143/138 73/156/19 74/117/114
f 78/144/113 145/88/88 143/5/5
f 29/72/72 33/35/35 136/73/73
f 131/122/119 125/66/66 126/8/8
f 72/20/20 80/178/122 79/114/111
f 69/37/37 68/158/144 67/146/139
f 100/143/138 97/17/17 73/156/19
f 87/128/125 86/105/104 91/107/6
f 24/151/141 22/63/63 23/152/142
f 88/3/3 94/2/2 93/93/93
f 122/133/130 53/53/53 123/54/54
f 132/32/32 45/180/11 46/147/102
f 96/69/69 94/2/2 111/119/116
f 130/7/7 129/9/9 135/68/68
f 78/153/113 74/141/114 64/154/143
f 12/67/67 125/66/66 124/97/97
f 63/135/132 76/148/135 75/155/140
f 98/126/123 80/125/122 73/156/19
f 81/60/60 90/138/82 77/157/136
f 14/49/49 54/50/50 15/52/52
f 29/72/72 137/74/74 30/75/75
f 14/49/49 17/48/48 13/101/101
f 24/151/141 19/56/56 21/61/61
f 4/85/85 6/70/70 5/79/79
f 49/99/99 72/20/20 48/113/110
f 61/100/100 63/135/132 64/154/143
f 88/3/3 85/120/117 84/71/71
f 25/62/62 10/142/137 23/152/142
f 139/34/34 3/179/28 2/159/30
f 112/1/1 114/15/15 111/119/116
f 47/115/112 79/114/111 46/102/102
f 105/18/18 110/96/96 109/95/95
f 75/149/140 144/118/115 145/88/88
f 123/54/54 52/98/98 108/31/31
f 122/133/130 120/131/128 119/14/14
f 142/81/81 144/118/115 76/139/135
f 68/158/144 77/157/136 76/148/135
f 81/60/60 68/158/144 69/37/37
f 43/12/12 45/11/11 133/162/133
f 56/80/80 66/112/109 71/39/39
f 148/165/149 4/85/85 150/85/148
f 136/73/73 155/167/151 156/163/146
f 9/78/78 152/168/156 151/164/147
f 4/85/85 5/79/79 151/164/147
f 138/160/145 157/160/155 155/167/151
f 137/74/74 156/163/146 154/104/152
f 2/30/30 128/29/29 147/166/150
f 1/76/76 146/76/157 153/87/154
f 2/159/30 149/159/153 157/160/155
f 9/78/78 27/87/87 153/87/154
f 32/104/103 154/104/152 146/76/157
f 156/163/146 163/170/161 162/169/158
f 149/30/153 147/166/150 158/166/159
f 153/87/154 146/76/157 162/169/158
f 150/85/148 151/164/147 160/164/163
f 146/76/157 154/104/152 162/169/158
f 152/168/156 166/173/165 160/164/163
f 157/160/155 164/172/160 163/170/161
f 147/166/150 148/165/149 159/171/164
f 148/165/149 150/85/148 159/171/164
f 152/168/156 153/87/154 161/87/162
f 162/169/158 163/170/161 167/175/167
f 164/30/160 158/166/159 168/176/168
f 161/87/162 162/169/158 167/175/167
f 160/164/163 166/173/165 165/174/166
f 164/172/160 168/176/168 167/175/167
f 159/171/164 165/174/166 168/176/168
f 161/87/162 167/175/167 168/176/168
f 166/173/165 161/87/162 168/176/168
